<?xml version="1.0" encoding="UTF-8" standalone="no"?>
<svg
   width="1429.7604"
   zoomAndPan="magnify"
   viewBox="0 0 1072.3203 81.640628"
   height="108.85417"
   preserveAspectRatio="xMidYMid"
   version="1.0"
   id="svg76"
   sodipodi:docname="AME_navbar_logo.svg"
   inkscape:version="1.3-dev (9bb0dc384, 2022-07-20)"
   xmlns:inkscape="http://www.inkscape.org/namespaces/inkscape"
   xmlns:sodipodi="http://sodipodi.sourceforge.net/DTD/sodipodi-0.dtd"
   xmlns="http://www.w3.org/2000/svg"
   xmlns:svg="http://www.w3.org/2000/svg">
  <sodipodi:namedview
     id="namedview76"
     pagecolor="#ffffff"
     bordercolor="#000000"
     borderopacity="0.25"
     inkscape:showpageshadow="2"
     inkscape:pageopacity="0.0"
     inkscape:pagecheckerboard="0"
     inkscape:deskcolor="#d1d1d1"
     showgrid="false"
     inkscape:zoom="0.77"
     inkscape:cx="715.58442"
     inkscape:cy="58.441558"
     inkscape:window-width="1920"
     inkscape:window-height="986"
     inkscape:window-x="-11"
     inkscape:window-y="-11"
     inkscape:window-maximized="1"
     inkscape:current-layer="svg76" />
  <defs
     id="defs1">
    <g
       id="g1" />
  </defs>
  <g
     fill="#ffffff"
     fill-opacity="1"
     id="g4"
     transform="translate(-25.356773,-331.50157)">
    <g
       transform="translate(23.82448,412.11095)"
       id="g3">
      <g
         id="g2">
        <path
           d="M 38.484375,0 C 37.578125,0 37.082031,-0.414062 37,-1.25 l -2.15625,-11.953125 c 0,-0.382813 -0.230469,-0.578125 -0.6875,-0.578125 h -16.625 c -0.460938,0 -0.6875,0.195312 -0.6875,0.578125 L 14.6875,-1.25 C 14.613281,-0.414062 14.117188,0 13.203125,0 H 2.84375 c -1.0625,0 -1.480469,-0.492188 -1.25,-1.484375 l 16.84375,-76.96875 c 0.15625,-0.832031 0.648438,-1.25 1.484375,-1.25 H 32 c 0.832031,0 1.320312,0.417969 1.46875,1.25 l 16.859375,76.96875 v 0.453125 c 0,0.6875 -0.417969,1.03125 -1.25,1.03125 z M 18.90625,-24.703125 c -0.08594,0.375 0.101562,0.5625 0.5625,0.5625 h 12.640625 c 0.457031,0 0.644531,-0.1875 0.5625,-0.5625 L 26.078125,-60.6875 c -0.08594,-0.226562 -0.203125,-0.34375 -0.359375,-0.34375 -0.148438,0 -0.257812,0.117188 -0.328125,0.34375 z m 0,0"
           id="path1" />
      </g>
    </g>
  </g>
  <g
     fill="#ffffff"
     fill-opacity="1"
     id="g7"
     transform="translate(-25.356773,-331.50157)">
    <g
       transform="translate(70.615184,412.11095)"
       id="g6">
      <g
         id="g5">
        <path
           d="m 38.484375,-78.328125 c 0,-0.382813 0.128906,-0.707031 0.390625,-0.96875 0.269531,-0.269531 0.59375,-0.40625 0.96875,-0.40625 h 10.375 c 0.375,0 0.691406,0.136719 0.953125,0.40625 0.269531,0.261719 0.40625,0.585937 0.40625,0.96875 v 76.96875 c 0,0.375 -0.136719,0.699219 -0.40625,0.96875 C 50.910156,-0.128906 50.59375,0 50.21875,0 H 38.25 C 37.5,0 37.007812,-0.378906 36.78125,-1.140625 L 19.8125,-49.421875 c -0.07422,-0.21875 -0.210938,-0.304687 -0.40625,-0.265625 -0.1875,0.03125 -0.28125,0.164062 -0.28125,0.390625 l 0.125,47.9375 c 0,0.375 -0.136719,0.699219 -0.40625,0.96875 C 18.570312,-0.128906 18.25,0 17.875,0 H 7.515625 c -0.375,0 -0.699219,-0.128906 -0.96875,-0.390625 -0.273437,-0.269531 -0.40625,-0.59375 -0.40625,-0.96875 v -76.96875 c 0,-0.382813 0.132813,-0.707031 0.40625,-0.96875 0.269531,-0.269531 0.59375,-0.40625 0.96875,-0.40625 H 19.25 c 0.75,0 1.238281,0.382813 1.46875,1.140625 l 17.078125,47.9375 c 0.08203,0.230469 0.21875,0.324219 0.40625,0.28125 0.1875,-0.03906 0.28125,-0.171875 0.28125,-0.390625 z m 0,0"
           id="path4" />
      </g>
    </g>
  </g>
  <g
     fill="#ffffff"
     fill-opacity="1"
     id="g10"
     transform="translate(-25.356773,-331.50157)">
    <g
       transform="translate(123.2121,412.11095)"
       id="g9">
      <g
         id="g8">
        <path
           d="m 7.515625,0 c -0.375,0 -0.699219,-0.128906 -0.96875,-0.390625 -0.273437,-0.269531 -0.40625,-0.59375 -0.40625,-0.96875 v -76.96875 c 0,-0.382813 0.132813,-0.707031 0.40625,-0.96875 0.269531,-0.269531 0.59375,-0.40625 0.96875,-0.40625 h 10.46875 c 0.382813,0 0.707031,0.136719 0.96875,0.40625 0.269531,0.261719 0.40625,0.585937 0.40625,0.96875 v 76.96875 c 0,0.375 -0.136719,0.699219 -0.40625,0.96875 C 18.691406,-0.128906 18.367188,0 17.984375,0 Z m 0,0"
           id="path7" />
      </g>
    </g>
  </g>
  <g
     fill="#ffffff"
     fill-opacity="1"
     id="g13"
     transform="translate(-25.356773,-331.50157)">
    <g
       transform="translate(143.59006,412.11095)"
       id="g12">
      <g
         id="g11">
        <path
           d="m 41.90625,-78.796875 c 0.375,-0.601563 0.941406,-0.90625 1.703125,-0.90625 h 10.46875 c 0.382813,0 0.707031,0.136719 0.96875,0.40625 0.269531,0.261719 0.40625,0.585937 0.40625,0.96875 v 76.96875 c 0,0.375 -0.136719,0.699219 -0.40625,0.96875 C 54.785156,-0.128906 54.460938,0 54.078125,0 H 43.609375 C 43.222656,0 42.894531,-0.128906 42.625,-0.390625 c -0.261719,-0.269531 -0.390625,-0.59375 -0.390625,-0.96875 v -53.75 c 0,-0.300781 -0.07813,-0.453125 -0.234375,-0.453125 -0.148438,0 -0.292969,0.117188 -0.4375,0.34375 l -9.90625,17.984375 c -0.386719,0.605469 -0.730469,0.90625 -1.03125,0.90625 -0.304688,0 -0.640625,-0.300781 -1.015625,-0.90625 l -9.90625,-17.984375 c -0.15625,-0.226562 -0.3125,-0.34375 -0.46875,-0.34375 -0.148437,0 -0.21875,0.152344 -0.21875,0.453125 v 53.75 c 0,0.375 -0.136719,0.699219 -0.40625,0.96875 C 18.347656,-0.128906 18.023438,0 17.640625,0 H 7.171875 C 6.796875,0 6.472656,-0.128906 6.203125,-0.390625 5.941406,-0.660156 5.8125,-0.984375 5.8125,-1.359375 v -76.96875 c 0,-0.382813 0.128906,-0.707031 0.390625,-0.96875 0.269531,-0.269531 0.59375,-0.40625 0.96875,-0.40625 h 10.46875 c 0.757813,0 1.332031,0.304687 1.71875,0.90625 l 11.046875,19.46875 c 0.21875,0.3125 0.441406,0.3125 0.671875,0 z m 0,0"
           id="path10" />
      </g>
    </g>
  </g>
  <g
     fill="#ffffff"
     fill-opacity="1"
     id="g16"
     transform="translate(-25.356773,-331.50157)">
    <g
       transform="translate(199.71628,412.11095)"
       id="g15">
      <g
         id="g14">
        <path
           d="m 45.890625,-69.6875 c 0,0.386719 -0.136719,0.714844 -0.40625,0.984375 -0.261719,0.261719 -0.585937,0.390625 -0.96875,0.390625 h -24.59375 c -0.375,0 -0.5625,0.1875 -0.5625,0.5625 v 21.515625 c 0,0.386719 0.1875,0.578125 0.5625,0.578125 H 34.5 c 0.375,0 0.691406,0.136719 0.953125,0.40625 0.269531,0.261719 0.40625,0.578125 0.40625,0.953125 v 8.765625 c 0,0.386719 -0.136719,0.714844 -0.40625,0.984375 C 35.191406,-34.285156 34.875,-34.15625 34.5,-34.15625 H 19.921875 c -0.375,0 -0.5625,0.1875 -0.5625,0.5625 v 21.640625 c 0,0.375 0.1875,0.5625 0.5625,0.5625 h 24.59375 c 0.382813,0 0.707031,0.136719 0.96875,0.40625 0.269531,0.261719 0.40625,0.585937 0.40625,0.96875 v 8.65625 c 0,0.375 -0.136719,0.699219 -0.40625,0.96875 C 45.222656,-0.128906 44.898438,0 44.515625,0 h -37 c -0.375,0 -0.699219,-0.128906 -0.96875,-0.390625 -0.273437,-0.269531 -0.40625,-0.59375 -0.40625,-0.96875 v -76.96875 c 0,-0.382813 0.132813,-0.707031 0.40625,-0.96875 0.269531,-0.269531 0.59375,-0.40625 0.96875,-0.40625 h 37 c 0.382813,0 0.707031,0.136719 0.96875,0.40625 0.269531,0.261719 0.40625,0.585937 0.40625,0.96875 z m 0,0"
           id="path13" />
      </g>
    </g>
  </g>
  <g
     fill="#ffffff"
     fill-opacity="1"
     id="g19"
     transform="translate(-25.356773,-331.50157)">
    <g
       transform="translate(244.11617,412.11095)"
       id="g18">
      <g
         id="g17" />
    </g>
  </g>
  <g
     fill="#e64d44"
     fill-opacity="1"
     id="g22"
     transform="translate(-25.356773,-331.50157)">
    <g
       transform="translate(261.71529,412.11095)"
       id="g21">
      <g
         id="g20">
        <path
           d="m 61.375,-1.703125 c 0.226562,0.304687 0.34375,0.605469 0.34375,0.90625 C 61.71875,-0.265625 61.335938,0 60.578125,0 H 49.296875 C 48.617188,0 48.050781,-0.265625 47.59375,-0.796875 l -3.296875,-4.4375 C 44.066406,-5.460938 43.800781,-5.5 43.5,-5.34375 c -5.46875,4.25 -11.734375,6.375 -18.796875,6.375 -6.523437,0 -11.664063,-1.671875 -15.421875,-5.015625 C 5.519531,-7.328125 3.640625,-12.1875 3.640625,-18.5625 c 0,-5.007812 1.132813,-9.273438 3.40625,-12.796875 2.28125,-3.53125 5.394531,-6.851563 9.34375,-9.96875 0.300781,-0.226563 0.34375,-0.492187 0.125,-0.796875 -3.648437,-5.082031 -6,-8.820312 -7.0625,-11.21875 -1.0625,-2.394531 -1.59375,-4.992188 -1.59375,-7.796875 0,-5.925781 1.757813,-10.648437 5.28125,-14.171875 3.53125,-3.53125 8.222656,-5.296875 14.078125,-5.296875 3.863281,0 7.3125,0.820313 10.34375,2.453125 3.039062,1.625 5.429688,3.921875 7.171875,6.890625 1.75,2.960937 2.625,6.371094 2.625,10.234375 0,4.710938 -1.199219,8.757812 -3.59375,12.140625 -2.386719,3.375 -5.625,6.617187 -9.71875,9.71875 -0.304687,0.230469 -0.339844,0.496094 -0.109375,0.796875 0.300781,0.460938 1.738281,2.433594 4.3125,5.921875 l 5.921875,8.09375 c 0.15625,0.148437 0.304687,0.21875 0.453125,0.21875 0.15625,0 0.269531,-0.07031 0.34375,-0.21875 1.90625,-2.65625 3.65625,-5.539063 5.25,-8.65625 0.445312,-0.832031 1.085938,-1.023437 1.921875,-0.578125 l 7.75,4.453125 c 0.757813,0.53125 0.910156,1.136719 0.453125,1.8125 -2.585938,4.9375 -5.242188,9.230469 -7.96875,12.875 -0.230469,0.304687 -0.265625,0.570313 -0.109375,0.796875 1.894531,2.34375 4.929687,6.328125 9.109375,11.953125 z M 27.546875,-68.65625 c -1.96875,0 -3.542969,0.742188 -4.71875,2.21875 -1.179687,1.480469 -1.765625,3.398438 -1.765625,5.75 0,1.667969 0.28125,3.1875 0.84375,4.5625 0.570312,1.367188 1.960938,3.640625 4.171875,6.828125 0.226563,0.375 0.492187,0.449219 0.796875,0.21875 2.351562,-1.894531 4.15625,-3.789063 5.40625,-5.6875 1.25,-1.894531 1.875,-3.945313 1.875,-6.15625 0,-2.269531 -0.625,-4.125 -1.875,-5.5625 -1.25,-1.445313 -2.828125,-2.171875 -4.734375,-2.171875 z m -1.59375,58.296875 c 3.414063,0 6.910156,-1.476563 10.484375,-4.4375 0.300781,-0.226563 0.335938,-0.492187 0.109375,-0.796875 l -4.203125,-5.46875 -7.859375,-10.25 c -0.230469,-0.300781 -0.496094,-0.335938 -0.796875,-0.109375 -4.5625,3.792969 -6.84375,7.742187 -6.84375,11.84375 0,2.65625 0.796875,4.859375 2.390625,6.609375 1.601563,1.742188 3.84375,2.609375 6.71875,2.609375 z m 0,0"
           id="path19" />
      </g>
    </g>
  </g>
  <g
     fill="#ffffff"
     fill-opacity="1"
     id="g25"
     transform="translate(-25.356773,-331.50157)">
    <g
       transform="translate(322.72251,412.11095)"
       id="g24">
      <g
         id="g23" />
    </g>
  </g>
  <g
     fill="#ffffff"
     fill-opacity="1"
     id="g28"
     transform="translate(-25.356773,-331.50157)">
    <g
       transform="translate(340.36815,412.11095)"
       id="g27">
      <g
         id="g26">
        <path
           d="m 41.90625,-78.796875 c 0.375,-0.601563 0.941406,-0.90625 1.703125,-0.90625 h 10.46875 c 0.382813,0 0.707031,0.136719 0.96875,0.40625 0.269531,0.261719 0.40625,0.585937 0.40625,0.96875 v 76.96875 c 0,0.375 -0.136719,0.699219 -0.40625,0.96875 C 54.785156,-0.128906 54.460938,0 54.078125,0 H 43.609375 C 43.222656,0 42.894531,-0.128906 42.625,-0.390625 c -0.261719,-0.269531 -0.390625,-0.59375 -0.390625,-0.96875 v -53.75 c 0,-0.300781 -0.07813,-0.453125 -0.234375,-0.453125 -0.148438,0 -0.292969,0.117188 -0.4375,0.34375 l -9.90625,17.984375 c -0.386719,0.605469 -0.730469,0.90625 -1.03125,0.90625 -0.304688,0 -0.640625,-0.300781 -1.015625,-0.90625 l -9.90625,-17.984375 c -0.15625,-0.226562 -0.3125,-0.34375 -0.46875,-0.34375 -0.148437,0 -0.21875,0.152344 -0.21875,0.453125 v 53.75 c 0,0.375 -0.136719,0.699219 -0.40625,0.96875 C 18.347656,-0.128906 18.023438,0 17.640625,0 H 7.171875 C 6.796875,0 6.472656,-0.128906 6.203125,-0.390625 5.941406,-0.660156 5.8125,-0.984375 5.8125,-1.359375 v -76.96875 c 0,-0.382813 0.128906,-0.707031 0.390625,-0.96875 0.269531,-0.269531 0.59375,-0.40625 0.96875,-0.40625 h 10.46875 c 0.757813,0 1.332031,0.304687 1.71875,0.90625 l 11.046875,19.46875 c 0.21875,0.3125 0.441406,0.3125 0.671875,0 z m 0,0"
           id="path25" />
      </g>
    </g>
  </g>
  <g
     fill="#ffffff"
     fill-opacity="1"
     id="g31"
     transform="translate(-25.356773,-331.50157)">
    <g
       transform="translate(396.49436,412.11095)"
       id="g30">
      <g
         id="g29">
        <path
           d="M 38.484375,0 C 37.578125,0 37.082031,-0.414062 37,-1.25 l -2.15625,-11.953125 c 0,-0.382813 -0.230469,-0.578125 -0.6875,-0.578125 h -16.625 c -0.460938,0 -0.6875,0.195312 -0.6875,0.578125 L 14.6875,-1.25 C 14.613281,-0.414062 14.117188,0 13.203125,0 H 2.84375 c -1.0625,0 -1.480469,-0.492188 -1.25,-1.484375 l 16.84375,-76.96875 c 0.15625,-0.832031 0.648438,-1.25 1.484375,-1.25 H 32 c 0.832031,0 1.320312,0.417969 1.46875,1.25 l 16.859375,76.96875 v 0.453125 c 0,0.6875 -0.417969,1.03125 -1.25,1.03125 z M 18.90625,-24.703125 c -0.08594,0.375 0.101562,0.5625 0.5625,0.5625 h 12.640625 c 0.457031,0 0.644531,-0.1875 0.5625,-0.5625 L 26.078125,-60.6875 c -0.08594,-0.226562 -0.203125,-0.34375 -0.359375,-0.34375 -0.148438,0 -0.257812,0.117188 -0.328125,0.34375 z m 0,0"
           id="path28" />
      </g>
    </g>
  </g>
  <g
     fill="#ffffff"
     fill-opacity="1"
     id="g34"
     transform="translate(-25.356773,-331.50157)">
    <g
       transform="translate(443.28507,412.11095)"
       id="g33">
      <g
         id="g32">
        <path
           d="m 38.484375,-78.328125 c 0,-0.382813 0.128906,-0.707031 0.390625,-0.96875 0.269531,-0.269531 0.59375,-0.40625 0.96875,-0.40625 h 10.375 c 0.375,0 0.691406,0.136719 0.953125,0.40625 0.269531,0.261719 0.40625,0.585937 0.40625,0.96875 v 76.96875 c 0,0.375 -0.136719,0.699219 -0.40625,0.96875 C 50.910156,-0.128906 50.59375,0 50.21875,0 H 38.25 C 37.5,0 37.007812,-0.378906 36.78125,-1.140625 L 19.8125,-49.421875 c -0.07422,-0.21875 -0.210938,-0.304687 -0.40625,-0.265625 -0.1875,0.03125 -0.28125,0.164062 -0.28125,0.390625 l 0.125,47.9375 c 0,0.375 -0.136719,0.699219 -0.40625,0.96875 C 18.570312,-0.128906 18.25,0 17.875,0 H 7.515625 c -0.375,0 -0.699219,-0.128906 -0.96875,-0.390625 -0.273437,-0.269531 -0.40625,-0.59375 -0.40625,-0.96875 v -76.96875 c 0,-0.382813 0.132813,-0.707031 0.40625,-0.96875 0.269531,-0.269531 0.59375,-0.40625 0.96875,-0.40625 H 19.25 c 0.75,0 1.238281,0.382813 1.46875,1.140625 l 17.078125,47.9375 c 0.08203,0.230469 0.21875,0.324219 0.40625,0.28125 0.1875,-0.03906 0.28125,-0.171875 0.28125,-0.390625 z m 0,0"
           id="path31" />
      </g>
    </g>
  </g>
  <g
     fill="#ffffff"
     fill-opacity="1"
     id="g37"
     transform="translate(-25.356773,-331.50157)">
    <g
       transform="translate(495.88198,412.11095)"
       id="g36">
      <g
         id="g35">
        <path
           d="m 26.1875,0.90625 c -6.449219,0 -11.632812,-1.875 -15.546875,-5.625 C 6.734375,-8.476562 4.78125,-13.472656 4.78125,-19.703125 V -60 c 0,-6.226562 1.953125,-11.21875 5.859375,-14.96875 3.914063,-3.757812 9.097656,-5.640625 15.546875,-5.640625 6.445312,0 11.664062,1.882813 15.65625,5.640625 3.988281,3.75 5.984375,8.777344 5.984375,15.078125 v 4.4375 c 0,0.386719 -0.136719,0.714844 -0.40625,0.984375 -0.261719,0.261719 -0.585937,0.390625 -0.96875,0.390625 h -10.46875 c -0.386719,0 -0.714844,-0.128906 -0.984375,-0.390625 -0.261719,-0.269531 -0.390625,-0.597656 -0.390625,-0.984375 V -60.125 c 0,-2.726562 -0.78125,-4.925781 -2.34375,-6.59375 -1.554687,-1.664062 -3.578125,-2.5 -6.078125,-2.5 -2.5,0 -4.511719,0.835938 -6.03125,2.5 -1.523438,1.667969 -2.28125,3.867188 -2.28125,6.59375 v 40.546875 c 0,2.730469 0.757812,4.933594 2.28125,6.609375 1.519531,1.667969 3.53125,2.5 6.03125,2.5 2.5,0 4.523438,-0.832031 6.078125,-2.5 1.5625,-1.675781 2.34375,-3.878906 2.34375,-6.609375 v -10.9375 c 0,-0.375 -0.1875,-0.5625 -0.5625,-0.5625 H 27.09375 c -0.375,0 -0.699219,-0.128906 -0.96875,-0.390625 -0.261719,-0.269531 -0.390625,-0.597656 -0.390625,-0.984375 v -8.3125 c 0,-0.375 0.128906,-0.691406 0.390625,-0.953125 0.269531,-0.269531 0.59375,-0.40625 0.96875,-0.40625 h 19.359375 c 0.382813,0 0.707031,0.136719 0.96875,0.40625 0.269531,0.261719 0.40625,0.578125 0.40625,0.953125 v 21.0625 c 0,6.230469 -1.996094,11.226563 -5.984375,14.984375 -3.992188,3.75 -9.210938,5.625 -15.65625,5.625 z m 0,0"
           id="path34" />
      </g>
    </g>
  </g>
  <g
     fill="#ffffff"
     fill-opacity="1"
     id="g40"
     transform="translate(-25.356773,-331.50157)">
    <g
       transform="translate(543.35576,412.11095)"
       id="g39">
      <g
         id="g38">
        <path
           d="M 38.484375,0 C 37.578125,0 37.082031,-0.414062 37,-1.25 l -2.15625,-11.953125 c 0,-0.382813 -0.230469,-0.578125 -0.6875,-0.578125 h -16.625 c -0.460938,0 -0.6875,0.195312 -0.6875,0.578125 L 14.6875,-1.25 C 14.613281,-0.414062 14.117188,0 13.203125,0 H 2.84375 c -1.0625,0 -1.480469,-0.492188 -1.25,-1.484375 l 16.84375,-76.96875 c 0.15625,-0.832031 0.648438,-1.25 1.484375,-1.25 H 32 c 0.832031,0 1.320312,0.417969 1.46875,1.25 l 16.859375,76.96875 v 0.453125 c 0,0.6875 -0.417969,1.03125 -1.25,1.03125 z M 18.90625,-24.703125 c -0.08594,0.375 0.101562,0.5625 0.5625,0.5625 h 12.640625 c 0.457031,0 0.644531,-0.1875 0.5625,-0.5625 L 26.078125,-60.6875 c -0.08594,-0.226562 -0.203125,-0.34375 -0.359375,-0.34375 -0.148438,0 -0.257812,0.117188 -0.328125,0.34375 z m 0,0"
           id="path37" />
      </g>
    </g>
  </g>
  <g
     fill="#ffffff"
     fill-opacity="1"
     id="g43"
     transform="translate(-25.356773,-331.50157)">
    <g
       transform="translate(590.14646,412.11095)"
       id="g42">
      <g
         id="g41" />
    </g>
  </g>
  <g
     fill="#ffffff"
     fill-opacity="1"
     id="g46"
     transform="translate(-25.356773,-331.50157)">
    <g
       transform="translate(607.7921,412.11095)"
       id="g45">
      <g
         id="g44">
        <path
           d="m 45.890625,-69.6875 c 0,0.386719 -0.136719,0.714844 -0.40625,0.984375 -0.261719,0.261719 -0.585937,0.390625 -0.96875,0.390625 h -24.59375 c -0.375,0 -0.5625,0.1875 -0.5625,0.5625 v 21.515625 c 0,0.386719 0.1875,0.578125 0.5625,0.578125 H 34.5 c 0.375,0 0.691406,0.136719 0.953125,0.40625 0.269531,0.261719 0.40625,0.578125 0.40625,0.953125 v 8.765625 c 0,0.386719 -0.136719,0.714844 -0.40625,0.984375 C 35.191406,-34.285156 34.875,-34.15625 34.5,-34.15625 H 19.921875 c -0.375,0 -0.5625,0.1875 -0.5625,0.5625 v 21.640625 c 0,0.375 0.1875,0.5625 0.5625,0.5625 h 24.59375 c 0.382813,0 0.707031,0.136719 0.96875,0.40625 0.269531,0.261719 0.40625,0.585937 0.40625,0.96875 v 8.65625 c 0,0.375 -0.136719,0.699219 -0.40625,0.96875 C 45.222656,-0.128906 44.898438,0 44.515625,0 h -37 c -0.375,0 -0.699219,-0.128906 -0.96875,-0.390625 -0.273437,-0.269531 -0.40625,-0.59375 -0.40625,-0.96875 v -76.96875 c 0,-0.382813 0.132813,-0.707031 0.40625,-0.96875 0.269531,-0.269531 0.59375,-0.40625 0.96875,-0.40625 h 37 c 0.382813,0 0.707031,0.136719 0.96875,0.40625 0.269531,0.261719 0.40625,0.585937 0.40625,0.96875 z m 0,0"
           id="path43" />
      </g>
    </g>
  </g>
  <g
     fill="#ffffff"
     fill-opacity="1"
     id="g49"
     transform="translate(-25.356773,-331.50157)">
    <g
       transform="translate(652.19198,412.11095)"
       id="g48">
      <g
         id="g47">
        <path
           d="m 38.484375,-78.328125 c 0,-0.382813 0.128906,-0.707031 0.390625,-0.96875 0.269531,-0.269531 0.59375,-0.40625 0.96875,-0.40625 h 10.375 c 0.375,0 0.691406,0.136719 0.953125,0.40625 0.269531,0.261719 0.40625,0.585937 0.40625,0.96875 v 76.96875 c 0,0.375 -0.136719,0.699219 -0.40625,0.96875 C 50.910156,-0.128906 50.59375,0 50.21875,0 H 38.25 C 37.5,0 37.007812,-0.378906 36.78125,-1.140625 L 19.8125,-49.421875 c -0.07422,-0.21875 -0.210938,-0.304687 -0.40625,-0.265625 -0.1875,0.03125 -0.28125,0.164062 -0.28125,0.390625 l 0.125,47.9375 c 0,0.375 -0.136719,0.699219 -0.40625,0.96875 C 18.570312,-0.128906 18.25,0 17.875,0 H 7.515625 c -0.375,0 -0.699219,-0.128906 -0.96875,-0.390625 -0.273437,-0.269531 -0.40625,-0.59375 -0.40625,-0.96875 v -76.96875 c 0,-0.382813 0.132813,-0.707031 0.40625,-0.96875 0.269531,-0.269531 0.59375,-0.40625 0.96875,-0.40625 H 19.25 c 0.75,0 1.238281,0.382813 1.46875,1.140625 l 17.078125,47.9375 c 0.08203,0.230469 0.21875,0.324219 0.40625,0.28125 0.1875,-0.03906 0.28125,-0.171875 0.28125,-0.390625 z m 0,0"
           id="path46" />
      </g>
    </g>
  </g>
  <g
     fill="#ffffff"
     fill-opacity="1"
     id="g52"
     transform="translate(-25.356773,-331.50157)">
    <g
       transform="translate(704.78889,412.11095)"
       id="g51">
      <g
         id="g50">
        <path
           d="m 47.03125,-79.703125 c 0.375,0 0.691406,0.136719 0.953125,0.40625 0.269531,0.261719 0.40625,0.585937 0.40625,0.96875 v 8.640625 c 0,0.386719 -0.136719,0.714844 -0.40625,0.984375 -0.261719,0.261719 -0.578125,0.390625 -0.953125,0.390625 H 32.5625 C 32.1875,-68.3125 32,-68.125 32,-67.75 v 66.390625 c 0,0.375 -0.136719,0.699219 -0.40625,0.96875 C 31.332031,-0.128906 31.007812,0 30.625,0 H 20.15625 C 19.769531,0 19.441406,-0.128906 19.171875,-0.390625 18.910156,-0.660156 18.78125,-0.984375 18.78125,-1.359375 V -67.75 c 0,-0.375 -0.1875,-0.5625 -0.5625,-0.5625 H 4.546875 c -0.375,0 -0.699219,-0.128906 -0.96875,-0.390625 C 3.316406,-68.972656 3.1875,-69.300781 3.1875,-69.6875 v -8.640625 c 0,-0.382813 0.128906,-0.707031 0.390625,-0.96875 0.269531,-0.269531 0.59375,-0.40625 0.96875,-0.40625 z m 0,0"
           id="path49" />
      </g>
    </g>
  </g>
  <g
     fill="#ffffff"
     fill-opacity="1"
     id="g55"
     transform="translate(-25.356773,-331.50157)">
    <g
       transform="translate(751.12419,412.11095)"
       id="g54">
      <g
         id="g53">
        <path
           d="m 34.953125,-78.328125 c 0,-0.382813 0.128906,-0.707031 0.390625,-0.96875 0.269531,-0.269531 0.597656,-0.40625 0.984375,-0.40625 h 10.46875 c 0.375,0 0.691406,0.136719 0.953125,0.40625 0.269531,0.261719 0.40625,0.585937 0.40625,0.96875 v 76.96875 c 0,0.375 -0.136719,0.699219 -0.40625,0.96875 C 47.488281,-0.128906 47.171875,0 46.796875,0 h -10.46875 c -0.386719,0 -0.714844,-0.128906 -0.984375,-0.390625 -0.261719,-0.269531 -0.390625,-0.59375 -0.390625,-0.96875 V -33.59375 c 0,-0.375 -0.1875,-0.5625 -0.5625,-0.5625 h -14.46875 c -0.375,0 -0.5625,0.1875 -0.5625,0.5625 v 32.234375 c 0,0.375 -0.136719,0.699219 -0.40625,0.96875 C 18.691406,-0.128906 18.367188,0 17.984375,0 H 7.515625 c -0.375,0 -0.699219,-0.128906 -0.96875,-0.390625 -0.273437,-0.269531 -0.40625,-0.59375 -0.40625,-0.96875 v -76.96875 c 0,-0.382813 0.132813,-0.707031 0.40625,-0.96875 0.269531,-0.269531 0.59375,-0.40625 0.96875,-0.40625 h 10.46875 c 0.382813,0 0.707031,0.136719 0.96875,0.40625 0.269531,0.261719 0.40625,0.585937 0.40625,0.96875 v 32.09375 c 0,0.386719 0.1875,0.578125 0.5625,0.578125 h 14.46875 c 0.375,0 0.5625,-0.191406 0.5625,-0.578125 z m 0,0"
           id="path52" />
      </g>
    </g>
  </g>
  <g
     fill="#ffffff"
     fill-opacity="1"
     id="g58"
     transform="translate(-25.356773,-331.50157)">
    <g
       transform="translate(800.30567,412.11095)"
       id="g57">
      <g
         id="g56">
        <path
           d="m 27.21875,0.90625 c -6.53125,0 -11.757812,-2.101562 -15.671875,-6.3125 C 7.640625,-9.625 5.6875,-15.1875 5.6875,-22.09375 v -56.234375 c 0,-0.382813 0.128906,-0.707031 0.390625,-0.96875 0.269531,-0.269531 0.597656,-0.40625 0.984375,-0.40625 h 10.46875 c 0.382812,0 0.707031,0.136719 0.96875,0.40625 0.269531,0.261719 0.40625,0.585937 0.40625,0.96875 v 57.609375 c 0,3.03125 0.753906,5.5 2.265625,7.40625 1.519531,1.898438 3.535156,2.84375 6.046875,2.84375 2.5,0 4.507812,-0.945312 6.03125,-2.84375 1.519531,-1.90625 2.28125,-4.375 2.28125,-7.40625 v -57.609375 c 0,-0.382813 0.128906,-0.707031 0.390625,-0.96875 0.269531,-0.269531 0.59375,-0.40625 0.96875,-0.40625 h 10.46875 c 0.382813,0 0.707031,0.136719 0.96875,0.40625 0.269531,0.261719 0.40625,0.585937 0.40625,0.96875 v 56.234375 c 0,6.90625 -1.976563,12.46875 -5.921875,16.6875 -3.949219,4.210938 -9.148438,6.3125 -15.59375,6.3125 z m 0,0"
           id="path55" />
      </g>
    </g>
  </g>
  <g
     fill="#ffffff"
     fill-opacity="1"
     id="g61"
     transform="translate(-25.356773,-331.50157)">
    <g
       transform="translate(849.60101,412.11095)"
       id="g60">
      <g
         id="g59">
        <path
           d="m 24.9375,0.90625 c -6.304688,0 -11.390625,-1.894531 -15.265625,-5.6875 C 5.804688,-8.570312 3.875,-13.546875 3.875,-19.703125 v -2.953125 c 0,-0.382812 0.128906,-0.707031 0.390625,-0.96875 0.269531,-0.269531 0.59375,-0.40625 0.96875,-0.40625 H 15.59375 c 0.382812,0 0.707031,0.136719 0.96875,0.40625 0.269531,0.261719 0.40625,0.585938 0.40625,0.96875 v 2.28125 c 0,2.960938 0.738281,5.351562 2.21875,7.171875 1.476562,1.824219 3.394531,2.734375 5.75,2.734375 2.351562,0 4.285156,-0.851562 5.796875,-2.5625 1.519531,-1.707031 2.28125,-3.96875 2.28125,-6.78125 0,-1.96875 -0.417969,-3.671875 -1.25,-5.109375 -0.835937,-1.445313 -2.011719,-2.816406 -3.53125,-4.109375 -1.523437,-1.289062 -3.949219,-3.148438 -7.28125,-5.578125 -3.804687,-2.738281 -6.859375,-5.171875 -9.171875,-7.296875 -2.3125,-2.125 -4.25,-4.679688 -5.8125,-7.671875 -1.554688,-3 -2.328125,-6.472656 -2.328125,-10.421875 0,-6.300781 1.894531,-11.3125 5.6875,-15.03125 3.800781,-3.71875 8.8125,-5.578125 15.03125,-5.578125 6.300781,0 11.390625,1.953125 15.265625,5.859375 3.875,3.90625 5.8125,9.089844 5.8125,15.546875 v 2.734375 c 0,0.375 -0.136719,0.699219 -0.40625,0.96875 -0.261719,0.261719 -0.585938,0.390625 -0.96875,0.390625 h -10.25 c -0.375,0 -0.699219,-0.128906 -0.96875,-0.390625 -0.261719,-0.269531 -0.390625,-0.59375 -0.390625,-0.96875 v -2.96875 c 0,-2.957031 -0.742187,-5.328125 -2.21875,-7.109375 -1.480469,-1.78125 -3.4375,-2.671875 -5.875,-2.671875 -2.273437,0 -4.132813,0.820312 -5.578125,2.453125 -1.4375,1.625 -2.15625,3.882813 -2.15625,6.765625 0,2.730469 0.773438,5.042969 2.328125,6.9375 1.5625,1.898438 4.617187,4.515625 9.171875,7.859375 4.625,3.417969 8.113281,6.210937 10.46875,8.375 2.351562,2.15625 4.175781,4.527344 5.46875,7.109375 C 45.351562,-27.132812 46,-24.0625 46,-20.5 c 0,6.460938 -1.9375,11.640625 -5.8125,15.546875 -3.867188,3.90625 -8.949219,5.859375 -15.25,5.859375 z m 0,0"
           id="path58" />
      </g>
    </g>
  </g>
  <g
     fill="#ffffff"
     fill-opacity="1"
     id="g64"
     transform="translate(-25.356773,-331.50157)">
    <g
       transform="translate(893.88701,412.11095)"
       id="g63">
      <g
         id="g62">
        <path
           d="m 7.515625,0 c -0.375,0 -0.699219,-0.128906 -0.96875,-0.390625 -0.273437,-0.269531 -0.40625,-0.59375 -0.40625,-0.96875 v -76.96875 c 0,-0.382813 0.132813,-0.707031 0.40625,-0.96875 0.269531,-0.269531 0.59375,-0.40625 0.96875,-0.40625 h 10.46875 c 0.382813,0 0.707031,0.136719 0.96875,0.40625 0.269531,0.261719 0.40625,0.585937 0.40625,0.96875 v 76.96875 c 0,0.375 -0.136719,0.699219 -0.40625,0.96875 C 18.691406,-0.128906 18.367188,0 17.984375,0 Z m 0,0"
           id="path61" />
      </g>
    </g>
  </g>
  <g
     fill="#ffffff"
     fill-opacity="1"
     id="g67"
     transform="translate(-25.356773,-331.50157)">
    <g
       transform="translate(914.26497,412.11095)"
       id="g66">
      <g
         id="g65">
        <path
           d="M 38.484375,0 C 37.578125,0 37.082031,-0.414062 37,-1.25 l -2.15625,-11.953125 c 0,-0.382813 -0.230469,-0.578125 -0.6875,-0.578125 h -16.625 c -0.460938,0 -0.6875,0.195312 -0.6875,0.578125 L 14.6875,-1.25 C 14.613281,-0.414062 14.117188,0 13.203125,0 H 2.84375 c -1.0625,0 -1.480469,-0.492188 -1.25,-1.484375 l 16.84375,-76.96875 c 0.15625,-0.832031 0.648438,-1.25 1.484375,-1.25 H 32 c 0.832031,0 1.320312,0.417969 1.46875,1.25 l 16.859375,76.96875 v 0.453125 c 0,0.6875 -0.417969,1.03125 -1.25,1.03125 z M 18.90625,-24.703125 c -0.08594,0.375 0.101562,0.5625 0.5625,0.5625 h 12.640625 c 0.457031,0 0.644531,-0.1875 0.5625,-0.5625 L 26.078125,-60.6875 c -0.08594,-0.226562 -0.203125,-0.34375 -0.359375,-0.34375 -0.148438,0 -0.257812,0.117188 -0.328125,0.34375 z m 0,0"
           id="path64" />
      </g>
    </g>
  </g>
  <g
     fill="#ffffff"
     fill-opacity="1"
     id="g70"
     transform="translate(-25.356773,-331.50157)">
    <g
       transform="translate(961.05567,412.11095)"
       id="g69">
      <g
         id="g68">
        <path
           d="m 24.9375,0.90625 c -6.304688,0 -11.390625,-1.894531 -15.265625,-5.6875 C 5.804688,-8.570312 3.875,-13.546875 3.875,-19.703125 v -2.953125 c 0,-0.382812 0.128906,-0.707031 0.390625,-0.96875 0.269531,-0.269531 0.59375,-0.40625 0.96875,-0.40625 H 15.59375 c 0.382812,0 0.707031,0.136719 0.96875,0.40625 0.269531,0.261719 0.40625,0.585938 0.40625,0.96875 v 2.28125 c 0,2.960938 0.738281,5.351562 2.21875,7.171875 1.476562,1.824219 3.394531,2.734375 5.75,2.734375 2.351562,0 4.285156,-0.851562 5.796875,-2.5625 1.519531,-1.707031 2.28125,-3.96875 2.28125,-6.78125 0,-1.96875 -0.417969,-3.671875 -1.25,-5.109375 -0.835937,-1.445313 -2.011719,-2.816406 -3.53125,-4.109375 -1.523437,-1.289062 -3.949219,-3.148438 -7.28125,-5.578125 -3.804687,-2.738281 -6.859375,-5.171875 -9.171875,-7.296875 -2.3125,-2.125 -4.25,-4.679688 -5.8125,-7.671875 -1.554688,-3 -2.328125,-6.472656 -2.328125,-10.421875 0,-6.300781 1.894531,-11.3125 5.6875,-15.03125 3.800781,-3.71875 8.8125,-5.578125 15.03125,-5.578125 6.300781,0 11.390625,1.953125 15.265625,5.859375 3.875,3.90625 5.8125,9.089844 5.8125,15.546875 v 2.734375 c 0,0.375 -0.136719,0.699219 -0.40625,0.96875 -0.261719,0.261719 -0.585938,0.390625 -0.96875,0.390625 h -10.25 c -0.375,0 -0.699219,-0.128906 -0.96875,-0.390625 -0.261719,-0.269531 -0.390625,-0.59375 -0.390625,-0.96875 v -2.96875 c 0,-2.957031 -0.742187,-5.328125 -2.21875,-7.109375 -1.480469,-1.78125 -3.4375,-2.671875 -5.875,-2.671875 -2.273437,0 -4.132813,0.820312 -5.578125,2.453125 -1.4375,1.625 -2.15625,3.882813 -2.15625,6.765625 0,2.730469 0.773438,5.042969 2.328125,6.9375 1.5625,1.898438 4.617187,4.515625 9.171875,7.859375 4.625,3.417969 8.113281,6.210937 10.46875,8.375 2.351562,2.15625 4.175781,4.527344 5.46875,7.109375 C 45.351562,-27.132812 46,-24.0625 46,-20.5 c 0,6.460938 -1.9375,11.640625 -5.8125,15.546875 -3.867188,3.90625 -8.949219,5.859375 -15.25,5.859375 z m 0,0"
           id="path67" />
      </g>
    </g>
  </g>
  <g
     fill="#ffffff"
     fill-opacity="1"
     id="g73"
     transform="translate(-25.356773,-331.50157)">
    <g
       transform="translate(1005.3417,412.11095)"
       id="g72">
      <g
         id="g71">
        <path
           d="m 47.03125,-79.703125 c 0.375,0 0.691406,0.136719 0.953125,0.40625 0.269531,0.261719 0.40625,0.585937 0.40625,0.96875 v 8.640625 c 0,0.386719 -0.136719,0.714844 -0.40625,0.984375 -0.261719,0.261719 -0.578125,0.390625 -0.953125,0.390625 H 32.5625 C 32.1875,-68.3125 32,-68.125 32,-67.75 v 66.390625 c 0,0.375 -0.136719,0.699219 -0.40625,0.96875 C 31.332031,-0.128906 31.007812,0 30.625,0 H 20.15625 C 19.769531,0 19.441406,-0.128906 19.171875,-0.390625 18.910156,-0.660156 18.78125,-0.984375 18.78125,-1.359375 V -67.75 c 0,-0.375 -0.1875,-0.5625 -0.5625,-0.5625 H 4.546875 c -0.375,0 -0.699219,-0.128906 -0.96875,-0.390625 C 3.316406,-68.972656 3.1875,-69.300781 3.1875,-69.6875 v -8.640625 c 0,-0.382813 0.128906,-0.707031 0.390625,-0.96875 0.269531,-0.269531 0.59375,-0.40625 0.96875,-0.40625 z m 0,0"
           id="path70" />
      </g>
    </g>
  </g>
  <g
     fill="#ffffff"
     fill-opacity="1"
     id="g76"
     transform="translate(-25.356773,-331.50157)">
    <g
       transform="translate(1051.677,412.11095)"
       id="g75">
      <g
         id="g74">
        <path
           d="m 24.9375,0.90625 c -6.304688,0 -11.390625,-1.894531 -15.265625,-5.6875 C 5.804688,-8.570312 3.875,-13.546875 3.875,-19.703125 v -2.953125 c 0,-0.382812 0.128906,-0.707031 0.390625,-0.96875 0.269531,-0.269531 0.59375,-0.40625 0.96875,-0.40625 H 15.59375 c 0.382812,0 0.707031,0.136719 0.96875,0.40625 0.269531,0.261719 0.40625,0.585938 0.40625,0.96875 v 2.28125 c 0,2.960938 0.738281,5.351562 2.21875,7.171875 1.476562,1.824219 3.394531,2.734375 5.75,2.734375 2.351562,0 4.285156,-0.851562 5.796875,-2.5625 1.519531,-1.707031 2.28125,-3.96875 2.28125,-6.78125 0,-1.96875 -0.417969,-3.671875 -1.25,-5.109375 -0.835937,-1.445313 -2.011719,-2.816406 -3.53125,-4.109375 -1.523437,-1.289062 -3.949219,-3.148438 -7.28125,-5.578125 -3.804687,-2.738281 -6.859375,-5.171875 -9.171875,-7.296875 -2.3125,-2.125 -4.25,-4.679688 -5.8125,-7.671875 -1.554688,-3 -2.328125,-6.472656 -2.328125,-10.421875 0,-6.300781 1.894531,-11.3125 5.6875,-15.03125 3.800781,-3.71875 8.8125,-5.578125 15.03125,-5.578125 6.300781,0 11.390625,1.953125 15.265625,5.859375 3.875,3.90625 5.8125,9.089844 5.8125,15.546875 v 2.734375 c 0,0.375 -0.136719,0.699219 -0.40625,0.96875 -0.261719,0.261719 -0.585938,0.390625 -0.96875,0.390625 h -10.25 c -0.375,0 -0.699219,-0.128906 -0.96875,-0.390625 -0.261719,-0.269531 -0.390625,-0.59375 -0.390625,-0.96875 v -2.96875 c 0,-2.957031 -0.742187,-5.328125 -2.21875,-7.109375 -1.480469,-1.78125 -3.4375,-2.671875 -5.875,-2.671875 -2.273437,0 -4.132813,0.820312 -5.578125,2.453125 -1.4375,1.625 -2.15625,3.882813 -2.15625,6.765625 0,2.730469 0.773438,5.042969 2.328125,6.9375 1.5625,1.898438 4.617187,4.515625 9.171875,7.859375 4.625,3.417969 8.113281,6.210937 10.46875,8.375 2.351562,2.15625 4.175781,4.527344 5.46875,7.109375 C 45.351562,-27.132812 46,-24.0625 46,-20.5 c 0,6.460938 -1.9375,11.640625 -5.8125,15.546875 -3.867188,3.90625 -8.949219,5.859375 -15.25,5.859375 z m 0,0"
           id="path73" />
      </g>
    </g>
  </g>
</svg>
